<svg height="512pt" viewBox="0 -25 512.00032 512" width="512pt" xmlns="http://www.w3.org/2000/svg"><path d="m102.355469 336.664062v73.410157h-65.65625c-20.269531 0-36.699219-16.429688-36.699219-36.695313 0-20.285156 16.429688-36.714844 36.699219-36.714844zm0 0" fill="#c9c9c9"/><path d="m480.914062 30.90625v305.757812h-444.214843c-20.269531 0-36.699219 16.429688-36.699219 36.714844v-336.664062c0-20.28125 16.429688-36.714844 36.699219-36.714844h413.3125c17.066406 0 30.902343 13.835938 30.902343 30.90625zm0 0" fill="#f2f2f2"/><path d="m450.011719 0h-30.734375c17.070312 0 30.90625 13.835938 30.90625 30.90625v305.757812h30.730468v-305.757812c0-17.070312-13.835937-30.90625-30.902343-30.90625zm0 0" fill="#c9c9c9"/><path d="m458.792969 458.925781-31.84375-25.859375c-3.785157-3.074218-9.203125-3.074218-12.988281 0l-31.84375 25.859375c-6.734376 5.46875-16.796876.675781-16.796876-7.996093v-119.90625h110.269532v119.90625c0 8.675781-10.0625 13.464843-16.796875 7.996093zm0 0" fill="#fc4755"/><path d="m475.589844 331.023438h-110.269532v51c15.742188 4.402343 21.140626 9.53125 37.507813 27.707031l.011719-.023438c4.34375 4.824219 10.613281 7.875 17.613281 7.875s13.273437-3.050781 17.613281-7.875l.015625.023438c16.367188-18.175781 21.761719-23.304688 37.507813-27.707031zm0 0" fill="#e31f2d"/><path d="m510.855469 320.578125c-9.835938-30.277344-9.835938-33.394531 0-63.671875h-.03125c2.003906-6.171875 1.511719-13.128906-1.988281-19.191406s-9.28125-9.96875-15.628907-11.316406l.015625-.027344c-31.140625-6.617188-33.839844-8.179688-55.140625-31.832032l-.015625.023438c-4.339844-4.824219-10.613281-7.875-17.613281-7.875s-13.269531 3.050781-17.609375 7.875l-.015625-.023438c-21.300781 23.652344-24 25.210938-55.144531 31.832032l.015625.027344c-6.347657 1.347656-12.125 5.253906-15.625 11.316406s-3.996094 13.019531-1.988281 19.191406h-.03125c9.835937 30.277344 9.835937 33.394531 0 63.671875h.03125c-2.007813 6.171875-1.511719 13.128906 1.988281 19.191406s9.277343 9.96875 15.625 11.316407l-.015625.027343c31.144531 6.621094 33.84375 8.179688 55.144531 31.835938l.011719-.023438c4.34375 4.820313 10.613281 7.871094 17.613281 7.871094s13.273437-3.050781 17.613281-7.871094l.015625.023438c21.300781-23.65625 24-25.214844 55.140625-31.835938l-.015625-.027343c6.347657-1.347657 12.128907-5.253907 15.628907-11.316407s3.992187-13.019531 1.988281-19.191406zm0 0" fill="#40c6c2"/><path d="m378.808594 71.269531h-310.335938c-4.144531 0-7.5-3.359375-7.5-7.5 0-4.144531 3.355469-7.5 7.5-7.5h310.335938c4.140625 0 7.5 3.355469 7.5 7.5 0 4.140625-3.359375 7.5-7.5 7.5zm0 0" fill="#403f4f"/><g fill="#5b586d"><path d="m335.945312 148.417969h-224.613281c-4.140625 0-7.5-3.355469-7.5-7.5 0-4.140625 3.359375-7.5 7.5-7.5h224.613281c4.144532 0 7.5 3.359375 7.5 7.5 0 4.144531-3.355468 7.5-7.5 7.5zm0 0"/><path d="m335.945312 200.847656h-224.613281c-4.140625 0-7.5-3.359375-7.5-7.5 0-4.144531 3.359375-7.5 7.5-7.5h224.613281c4.144532 0 7.5 3.355469 7.5 7.5 0 4.140625-3.355468 7.5-7.5 7.5zm0 0"/><path d="m457.488281 328.5c.003907-.425781-.003906-.847656-.015625-1.277344-.5625-19.695312-16.789062-38.660156-36.492187-38.933594-20.695313-.289062-37.5625 19.386719-37.5625 40.015626v.140624c.023437 6.527344 6.472656 11.03125 12.695312 9.070313 16.226563-5.113281 32.453125-5.113281 48.683594.003906 6.203125 1.953125 12.660156-2.515625 12.691406-9.019531zm0 0"/><path d="m432.851562 254.4375c0-8.246094-5.550781-14.933594-12.398437-14.933594-6.84375 0-12.394531 6.6875-12.394531 14.933594s5.550781 14.933594 12.394531 14.933594c6.847656 0 12.398437-6.6875 12.398437-14.933594zm0 0"/><path d="m388.09375 263.757812c-5.515625-6.128906-14.113281-7.382812-19.203125-2.804687-5.085937 4.582031-4.734375 13.261719.78125 19.390625 5.519531 6.128906 14.117187 7.382812 19.203125 2.804688 5.085938-4.582032 4.738281-13.261719-.78125-19.390626zm0 0"/><path d="m471.964844 260.96875c-5.089844-4.582031-13.6875-3.328125-19.203125 2.800781-5.519531 6.128907-5.867188 14.8125-.78125 19.390625 5.085937 4.582032 13.683593 3.324219 19.203125-2.804687 5.515625-6.125 5.867187-14.808594.78125-19.386719zm0 0"/></g><path d="m129.164062 300.15625h-67.683593c-5.691407 0-10.304688-4.613281-10.304688-10.304688v-20.753906c0-5.691406 4.613281-10.300781 10.304688-10.300781h67.683593c5.691407 0 10.300782 4.609375 10.300782 10.300781v20.753906c0 5.691407-4.609375 10.304688-10.300782 10.304688zm0 0" fill="#efd76f"/></svg>