<svg height="512pt" viewBox="0 -106 512 512" width="512pt" xmlns="http://www.w3.org/2000/svg"><path d="m7.5 21.5h497v100h-497zm0 0" fill="#b0693c"/><path d="m474.5 21.5h30v100h-30zm0 0" fill="#9c5d35"/><path d="m435.996094 7.5h-104c-11.039063 0-20 8.949219-20 20v88c0 11.050781 8.960937 20 20 20h104c11.050781 0 20-8.949219 20-20v-88c0-11.050781-8.949219-20-20-20zm-6.109375 100c0 1.101562-.902344 2-2 2h-88c-1.101563 0-2-.898438-2-2v-72c0-1.101562.898437-2 2-2h88c1.097656 0 2 .898438 2 2zm0 0" fill="#e8e1d5"/><path d="m435.996094 7.5h-26.109375c11.050781 0 20 8.949219 20 20v88c0 11.050781-8.949219 20-20 20h26.109375c11.050781 0 20-8.949219 20-20v-88c0-11.050781-8.949219-20-20-20zm0 0" fill="#d6cfc4"/><g fill="#633327"><path d="m92.535156 9.5h30v124h-30zm0 0"/><path d="m271 71.5c0 8.285156-6.714844 15-15 15s-15-6.714844-15-15 6.714844-15 15-15 15 6.714844 15 15zm0 0"/><path d="m181 71.5c0 8.285156-6.714844 15-15 15s-15-6.714844-15-15 6.714844-15 15-15 15 6.714844 15 15zm0 0"/><path d="m68 71.5c0 8.285156-6.714844 15-15 15s-15-6.714844-15-15 6.714844-15 15-15 15 6.714844 15 15zm0 0"/></g><path d="m241 149.5h30v40h-30zm0 0" fill="#ffbd54"/><path d="m461.5 84.5h-56c-7.179688 0-13-5.820312-13-13s5.820312-13 13-13h56c7.179688 0 13 5.820312 13 13s-5.820312 13-13 13zm0 0" fill="#ffd659"/><path d="m461.5 58.5h-30c7.179688 0 13 5.820312 13 13s-5.820312 13-13 13h30c7.179688 0 13-5.820312 13-13s-5.820312-13-13-13zm0 0" fill="#ffbd54"/><path d="m315 233.5c0 32.585938-26.414062 59-59 59s-59-26.414062-59-59 26.414062-59 59-59 59 26.414062 59 59zm0 0" fill="#ffd659"/><path d="m256 174.5c-5.175781 0-10.195312.671875-14.976562 1.925781 25.328124 6.628907 44.019531 29.667969 44.019531 57.074219s-18.691407 50.445312-44.019531 57.074219c4.78125 1.253906 9.800781 1.925781 14.976562 1.925781 32.585938 0 59-26.414062 59-59s-26.414062-59-59-59zm0 0" fill="#ffbd54"/><path d="m271 252.5c0 8.285156-6.714844 15-15 15s-15-6.714844-15-15 6.714844-15 15-15 15 6.714844 15 15zm0 0" fill="#633327"/><path d="m504.5 14h-44.554688c-4.726562-8.347656-13.6875-14-23.945312-14h-104c-10.257812 0-19.21875 5.652344-23.945312 14h-139.886719c-4.144531 0-7.5 3.359375-7.5 7.5s3.355469 7.5 7.5 7.5h136.332031v85h-41v-21.289062c8.730469-3.097657 15-11.433594 15-21.210938 0-12.40625-10.09375-22.5-22.5-22.5s-22.5 10.09375-22.5 22.5c0 9.777344 6.269531 18.113281 15 21.210938v21.289062h-118.464844v-85h5.800782c4.140624 0 7.5-3.359375 7.5-7.5s-3.359376-7.5-7.5-7.5h-5.800782v-4.5c0-4.140625-3.355468-7.5-7.5-7.5h-30c-4.140625 0-7.5 3.359375-7.5 7.5v4.5h-77.535156c-4.140625 0-7.5 3.359375-7.5 7.5v100c0 4.140625 3.359375 7.5 7.5 7.5h77.535156v4.5c0 4.140625 3.359375 7.5 7.5 7.5h30c4.144532 0 7.5-3.359375 7.5-7.5v-4.5h118.464844v13h-7.5c-4.140625 0-7.5 3.359375-7.5 7.5v21.429688c-10.992188 3.949218-20.875 10.757812-28.566406 19.972656-2.65625 3.179687-2.230469 7.910156.949218 10.566406 3.179688 2.652344 7.910157 2.226562 10.5625-.953125 9.824219-11.765625 24.242188-18.515625 39.554688-18.515625 28.398438 0 51.5 23.101562 51.5 51.5 0 25.847656-19.144531 47.304688-44 50.949219v-10.738281c8.730469-3.097657 15-11.433594 15-21.210938 0-12.40625-10.09375-22.5-22.5-22.5s-22.5 10.09375-22.5 22.5c0 9.777344 6.269531 18.113281 15 21.210938v10.738281c-24.855469-3.644531-44-25.101563-44-50.949219 0-2.632812.199219-5.273438.59375-7.851562.625-4.09375-2.1875-7.921876-6.28125-8.546876-4.097656-.625-7.921875 2.183594-8.546875 6.28125-.507813 3.324219-.765625 6.726563-.765625 10.117188 0 36.667969 29.832031 66.5 66.5 66.5s66.5-29.832031 66.5-66.5c0-28.773438-18.371094-53.328125-44-62.574219v-21.425781c0-4.140625-3.359375-7.5-7.5-7.5h-7.5v-13h44.554688c4.726562 8.347656 13.6875 14 23.945312 14h52c4.140625 0 7.5-3.359375 7.5-7.5s-3.359375-7.5-7.5-7.5h-52c-6.894531 0-12.5-5.605469-12.5-12.5v-88c0-6.894531 5.605469-12.5 12.5-12.5h104c6.894531 0 12.5 5.605469 12.5 12.5v23.5h-11.109375v-15.5c0-5.238281-4.261719-9.5-9.5-9.5h-88c-5.238281 0-9.5 4.261719-9.5 9.5v72c0 5.238281 4.261719 9.5 9.5 9.5h88c5.238281 0 9.5-4.261719 9.5-9.5v-15.5h11.109375v23.5c0 6.894531-5.605469 12.5-12.5 12.5h-19.832031c-4.144531 0-7.5 3.359375-7.5 7.5s3.355469 7.5 7.5 7.5h19.832031c10.257812 0 19.21875-5.652344 23.945312-14h44.554688c4.140625 0 7.5-3.359375 7.5-7.5v-100c0-4.140625-3.359375-7.5-7.5-7.5zm-248.5 50c4.136719 0 7.5 3.363281 7.5 7.5s-3.363281 7.5-7.5 7.5-7.5-3.363281-7.5-7.5 3.363281-7.5 7.5-7.5zm-241 50v-85h70.035156v85zm100.035156 12h-15v-109h15zm140.964844 119c4.136719 0 7.5 3.363281 7.5 7.5s-3.363281 7.5-7.5 7.5-7.5-3.363281-7.5-7.5 3.363281-7.5 7.5-7.5zm0-78c-2.523438 0-5.023438.144531-7.5.425781v-10.425781h15v10.433594c-2.464844-.277344-4.964844-.433594-7.5-.433594zm205.5-90h-56c-3.03125 0-5.5-2.46875-5.5-5.5s2.46875-5.5 5.5-5.5h56c3.03125 0 5.5 2.46875 5.5 5.5s-2.46875 5.5-5.5 5.5zm-39.109375 25h-77v-61h77v10h-16.890625c-11.304688 0-20.5 9.195312-20.5 20.5s9.195312 20.5 20.5 20.5h16.890625zm74.609375 12h-33.5v-22.101562c10.367188-1.007813 18.5-9.769532 18.5-20.398438s-8.132812-19.390625-18.5-20.398438v-22.101562h33.5zm0 0"/><path d="m166 94c12.40625 0 22.5-10.09375 22.5-22.5s-10.09375-22.5-22.5-22.5-22.5 10.09375-22.5 22.5 10.09375 22.5 22.5 22.5zm0-30c4.136719 0 7.5 3.363281 7.5 7.5s-3.363281 7.5-7.5 7.5-7.5-3.363281-7.5-7.5 3.363281-7.5 7.5-7.5zm0 0"/><path d="m53 49c-12.40625 0-22.5 10.09375-22.5 22.5s10.09375 22.5 22.5 22.5 22.5-10.09375 22.5-22.5-10.09375-22.5-22.5-22.5zm0 30c-4.136719 0-7.5-3.363281-7.5-7.5s3.363281-7.5 7.5-7.5 7.5 3.363281 7.5 7.5-3.363281 7.5-7.5 7.5zm0 0"/></svg>