<svg height="496pt" viewBox="0 0 496 496" width="496pt" xmlns="http://www.w3.org/2000/svg"><path d="m248 0c-22.960938 0-45.601562 3.296875-67.496094 9.472656-7.976562-5.921875-17.824218-9.472656-28.503906-9.472656-25.832031 0-46.902344 20.519531-47.902344 46.113281-65.226562 46.574219-104.097656 121.679688-104.097656 201.886719 0 136.753906 111.246094 248 248 248s248-111.246094 248-248-111.246094-248-248-248zm-128 48c0-17.648438 14.351562-32 32-32s32 14.351562 32 32v16c0 17.648438-14.351562 32-32 32s-32-14.351562-32-32zm24 248v159.289062c-14.230469-7.167968-27.625-15.761718-40-25.59375v-165.695312h96v210.976562c-13.824219-2.921874-27.191406-7.089843-40-12.359374v-166.617188zm-72-88h16v112c0 4.414062-3.585938 8-8 8s-8-3.585938-8-8zm144 104h13.167969c.960937 0 1.894531.121094 2.832031.199219v7.800781c0 4.414062-3.585938 8-8 8s-8-3.585938-8-8zm13.167969-16h-13.167969v-88h16v88.199219c-.953125-.054688-1.878906-.199219-2.832031-.199219zm2.832031-104h-16v-32h-16v88h-96v-88h-16v32h-16v-31.015625c0-11.03125 7.480469-20.609375 18.175781-23.289063l34.257813-8.558593c4.605468 6.054687 13.671875 14.863281 27.566406 14.863281s22.960938-8.808594 27.558594-14.863281l34.257812 8.558593c10.703125 2.679688 18.183594 12.257813 18.183594 23.289063zm-64-74.207031c-1.984375 3.0625-7.496094 10.207031-16 10.207031s-14.015625-7.144531-16-10.207031v-8.59375c5.015625 1.785156 10.382812 2.800781 16 2.800781s10.984375-1.023438 16-2.800781zm-152 130.207031c0-71.167969 32.679688-138.0625 88.105469-181.953125.566406 13.34375 6.582031 25.265625 15.894531 33.632813v14.074218l-33.695312 8.429688c-17.839844 4.457031-30.304688 20.410156-30.304688 38.800781v159.015625c0 13.230469 10.769531 24 24 24 2.816406 0 5.488281-.574219 8-1.472656v73.234375c-44.3125-42.28125-72-101.832031-72-167.761719zm200 229.742188v-135.214844c2.511719.898437 5.183594 1.472656 8 1.472656 13.230469 0 24-10.769531 24-24v-2.601562c5.382812 3.378906 9.863281 8.21875 12.839844 14.1875 8.089844 16.191406 23.777344 26.605468 41.574218 28.109374-9.15625 11.28125-14.414062 25.441407-14.414062 40.304688v56c0 7.601562 3.625 14.3125 9.152344 18.710938-15.855469 3.433593-32.289063 5.289062-49.152344 5.289062-10.863281 0-21.527344-.808594-32-2.257812zm172.574219-218.183594 3.90625-5.855469c2.375-3.566406 6.359375-5.703125 10.664062-5.703125 4.878907 0 9.269531 2.710938 11.457031 7.089844l6.671876 13.335937c1.78125 3.574219 2.726562 7.574219 2.726562 11.574219 0 6.839844-4.335938 12.640625-10.382812 14.929688-4.023438-14.503907-13.007813-26.953126-25.042969-35.371094zm11.425781 52.441406c0 10-3.078125 19.296875-8.335938 26.992188-1.359374-10.703126-7.039062-20.457032-15.671874-26.953126 0-.015624 0-.023437 0-.039062 0-13.230469-10.769532-24-24-24-13.230469 0-24 10.769531-24 24v.039062c-8.625 6.496094-14.304688 16.25-15.671876 26.953126-5.242187-7.695313-8.320312-16.992188-8.320312-26.992188 0-26.472656 21.527344-48 48-48s48 21.527344 48 48zm0 111.046875c-5.144531 4.472656-10.472656 8.730469-16 12.738281v-11.785156c0-17.648438-14.351562-32-32-32s-32 14.351562-32 32v32c0 4.414062-3.585938 8-8 8s-8-3.585938-8-8v-56c0-12.800781 5.191406-24.902344 14.078125-33.832031 9.851563 6.191406 21.457031 9.832031 33.921875 9.832031s24.070312-3.640625 33.921875-9.832031c8.886719 8.929687 14.078125 21.03125 14.078125 33.832031zm-32 23.433594c-10.535156 6.390625-21.648438 11.925781-33.191406 16.597656.703125-2.246094 1.191406-4.597656 1.191406-7.078125v-32c0-8.824219 7.175781-16 16-16s16 7.175781 16 16zm-16-110.480469c7.046875 0 13.335938-3.113281 17.734375-7.96875 3.90625 4.351562 6.265625 9.984375 6.265625 15.96875v9.503906c-7.070312 4.105469-15.257812 6.496094-24 6.496094s-16.929688-2.390625-24-6.496094v-9.503906c0-5.984375 2.359375-11.617188 6.265625-15.96875 4.398437 4.855469 10.6875 7.96875 17.734375 7.96875zm-8-24c0-4.414062 3.585938-8 8-8s8 3.585938 8 8-3.585938 8-8 8-8-3.585938-8-8zm-53.617188-17.070312c-6.046874-2.289063-10.382812-8.089844-10.382812-14.929688 0-4 .945312-8 2.734375-11.574219l6.671875-13.335937c2.179688-4.378906 6.570312-7.089844 11.449219-7.089844 4.296875 0 8.28125 2.136719 10.664062 5.703125l3.90625 5.855469c-12.035156 8.417968-21.019531 20.867187-25.042969 35.371094zm125.617188 112.8125v-7.742188c0-16.535156-6.488281-32.207031-17.65625-43.992188 10.914062-11.480468 17.65625-26.953124 17.65625-44.007812 0-.375-.046875-.742188-.054688-1.121094 13.789063-3.550781 24.054688-15.992187 24.054688-30.878906 0-6.472656-1.527344-12.945312-4.425781-18.734375l-6.671875-13.335937c-4.902344-9.824219-14.773438-15.929688-25.757813-15.929688-9.65625 0-18.625 4.800781-23.976562 12.832031l-4.839844 7.273438c-6.96875-2.609375-14.472656-4.105469-22.328125-4.105469s-15.359375 1.496094-22.320312 4.097656l-4.839844-7.273437c-5.351563-8.023438-14.328125-12.824219-23.984375-12.824219-10.984375 0-20.855469 6.105469-25.765625 15.929688l-6.675782 13.335937c-2.886718 5.789063-4.414062 12.261719-4.414062 18.734375 0 14.886719 10.265625 27.328125 24.054688 30.878906-.007813.378906-.054688.746094-.054688 1.121094 0 10.878906 2.742188 21.128906 7.550781 30.105469-8.734375-2.921875-16.117187-9.113281-20.398437-17.679688-5.808594-11.625-15.558594-20.242187-27.160156-24.785156v-138.65625c0-18.390625-12.464844-34.34375-30.304688-38.808594l-33.6875-8.421875v-14.074218c9.792969-8.792969 16-21.503907 16-35.679688v-16c0-9.289062-2.695312-17.929688-7.273438-25.289062 18.015626-4.398438 36.53125-6.710938 55.273438-6.710938 127.921875 0 232 104.078125 232 232 0 61.863281-24.390625 118.105469-64 159.742188zm0 0"/></svg>