<?xml version="1.0" encoding="iso-8859-1"?>
<!-- Generator: Adobe Illustrator 19.0.0, SVG Export Plug-In . SVG Version: 6.00 Build 0)  -->
<svg version="1.1" id="Layer_1" xmlns="http://www.w3.org/2000/svg" xmlns:xlink="http://www.w3.org/1999/xlink" x="0px" y="0px"
	 viewBox="0 0 512 512" style="enable-background:new 0 0 512 512;" xml:space="preserve">
<path style="fill:#ED2F49;" d="M369.62,8.17c-3.813,0-7.583,0.183-11.312,0.505L256,503.83l217.353-287.289
	c16.489-21.791,26.274-48.932,26.274-78.365C499.627,66.376,441.421,8.17,369.62,8.17z"/>
<path style="fill:#FE7074;" d="M153.693,8.676c-3.73-0.322-7.499-0.505-11.313-0.505c-71.801,0-130.007,58.206-130.007,130.007
	c0,29.433,9.786,56.574,26.274,78.365L256,503.83L153.693,8.676z"/>
<path style="fill:#FF455E;" d="M455.331,138.177c0-67.95-42.655-123.716-97.023-129.501C314.232,12.48,276.466,38.275,256,75.041
	c-20.466-36.766-58.232-62.562-102.308-66.365c-54.367,5.786-97.023,61.55-97.023,129.501c0,29.433,8.007,56.574,21.497,78.365
	L256,503.83l177.835-287.289C447.326,194.751,455.331,167.609,455.331,138.177z"/>
<g>
	<path style="fill:#FFDD77;" d="M298.346,267.702c0.027-0.623,0.048-1.246,0.048-1.875c0-23.414-18.98-42.394-42.394-42.394
		s-42.394,18.98-42.394,42.394c0,0.629,0.021,1.253,0.048,1.875c-19.85,3.528-34.927,20.86-34.927,41.725
		c0,23.414,18.98,42.394,42.394,42.394c14.465,0,27.23-7.249,34.88-18.307c7.651,11.057,20.416,18.307,34.88,18.307
		c23.413,0,42.394-18.98,42.394-42.394C333.274,288.561,318.196,271.23,298.346,267.702z"/>
	<path style="fill:#FFDD77;" d="M382.011,180.902c-12.912-9.042-33.869-1.391-46.809,17.088
		c-12.931,18.482-12.951,40.789-0.04,49.83c12.912,9.042,33.869,1.391,46.809-17.089
		C394.902,212.249,394.923,189.942,382.011,180.902z"/>
	<path style="fill:#FFDD77;" d="M129.989,180.902c12.912-9.042,33.869-1.391,46.809,17.088c12.931,18.482,12.951,40.789,0.04,49.83
		c-12.912,9.042-33.869,1.391-46.809-17.089C117.099,212.249,117.078,189.942,129.989,180.902z"/>
	
		<ellipse transform="matrix(-0.2588 -0.9659 0.9659 -0.2588 128.6787 381.735)" style="fill:#FFDD77;" cx="210.799" cy="141.498" rx="40.844" ry="28.54"/>
	
		<ellipse transform="matrix(-0.9659 -0.2588 0.2588 -0.9659 555.4822 356.1301)" style="fill:#FFDD77;" cx="301.183" cy="141.501" rx="28.54" ry="40.844"/>
</g>
<g>
	<path style="fill:#1D2328;" d="M369.62,0C324.062,0,281.658,22.532,256,59.597C230.343,22.532,187.939,0,142.38,0
		C66.189,0,4.203,61.986,4.203,138.177c0,30.345,9.657,59.148,27.929,83.294l217.353,287.289C251.028,510.801,253.44,512,256,512
		c2.56,0,4.972-1.199,6.515-3.241l98.818-130.613c2.722-3.598,2.012-8.723-1.586-11.445c-3.599-2.722-8.721-2.012-11.446,1.586
		L256,490.288L45.163,211.612c-16.106-21.285-24.62-46.678-24.62-73.435c0-67.181,54.655-121.836,121.836-121.836
		c44.162,0,84.964,24.015,106.482,62.674c1.442,2.591,4.173,4.196,7.139,4.196c2.965,0,5.697-1.606,7.139-4.196
		C284.659,40.355,325.46,16.34,369.62,16.34c67.181,0,121.836,54.655,121.836,121.836c0,26.757-8.512,52.15-24.62,73.436
		l-98.818,130.612c-2.722,3.598-2.012,8.723,1.586,11.445c3.601,2.723,8.725,2.013,11.446-1.586l98.817-130.612
		c18.271-24.147,27.929-52.95,27.929-83.295C507.797,61.986,445.81,0,369.62,0z"/>
	<path style="fill:#1D2328;" d="M221.121,359.989c13.106,0,25.563-5.092,34.88-13.969c9.317,8.877,21.773,13.969,34.88,13.969
		c27.881,0,50.564-22.683,50.564-50.564c0-22.251-14.402-41.533-35.082-48.14c-2.303-25.762-24.011-46.023-50.361-46.023
		c-26.351,0-48.058,20.261-50.361,46.023c-20.679,6.607-35.082,25.889-35.082,48.141
		C170.557,337.307,193.24,359.989,221.121,359.989z M215.085,275.746c4.032-0.717,6.911-4.308,6.732-8.4
		c-0.022-0.504-0.039-1.009-0.039-1.52c0-18.871,15.352-34.223,34.222-34.223c18.871,0,34.223,15.352,34.223,34.223
		c0,0.512-0.02,1.02-0.04,1.526c-0.174,4.088,2.704,7.677,6.733,8.394c16.333,2.903,28.187,17.068,28.187,33.681
		c0,18.871-15.352,34.223-34.223,34.223c-11.228,0-21.756-5.527-28.161-14.785c-1.526-2.205-4.037-3.521-6.719-3.521
		c-2.682,0-5.193,1.316-6.718,3.522c-6.405,9.257-16.933,14.785-28.161,14.785c-18.871,0-34.222-15.352-34.222-34.223
		C186.897,292.814,198.752,278.649,215.085,275.746z"/>
	<path style="fill:#1D2328;" d="M231.175,176.691c3.908,2.254,8.904,0.912,11.158-2.999c6.553-11.37,7.987-26.565,3.934-41.692
		c-7.115-26.549-28.262-43.167-48.148-37.844c-19.884,5.328-29.889,30.298-22.775,56.848c4.055,15.127,12.894,27.571,24.254,34.14
		c1.289,0.745,2.695,1.099,4.083,1.099c2.821-0.001,5.566-1.463,7.08-4.082c2.258-3.906,0.924-8.904-2.983-11.163
		c-7.527-4.354-13.752-13.41-16.65-24.224c-4.584-17.108,0.554-33.977,11.22-36.835c10.667-2.861,23.551,9.181,28.135,26.29
		c2.898,10.815,2.036,21.769-2.307,29.303C225.922,169.441,227.265,174.437,231.175,176.691z"/>
	<path style="fill:#1D2328;" d="M134.676,187.595c5.39-3.774,12.279-2.118,15.906-0.794c7.178,2.621,14.294,8.407,19.524,15.876
		c6.422,9.171,9.359,19.76,7.854,28.325c-0.781,4.445,2.19,8.68,6.633,9.46c4.446,0.783,8.68-2.19,9.46-6.633
		c2.27-12.924-1.581-27.695-10.564-40.523c-7.209-10.296-16.906-18.057-27.305-21.854c-11.255-4.109-22.511-3.104-30.882,2.758
		c-16.862,11.808-17.724,38.693-1.959,61.209c8.983,12.828,21.545,21.497,34.466,23.786c0.483,0.085,0.961,0.126,1.435,0.126
		c3.887-0.001,7.334-2.787,8.036-6.746c0.787-4.444-2.178-8.683-6.62-9.47c-8.562-1.516-17.509-7.897-23.931-17.069
		C126.571,211.537,125.631,193.928,134.676,187.595z"/>
	<path style="fill:#1D2328;" d="M351.34,243.114c-4.444,0.788-7.408,5.027-6.62,9.47c0.702,3.961,4.147,6.746,8.035,6.746
		c0.474,0,0.952-0.041,1.434-0.126c12.921-2.289,25.483-10.959,34.467-23.786c7.209-10.296,11.186-22.063,11.195-33.133
		c0.012-11.982-4.783-22.214-13.154-28.076c-16.863-11.809-42.421-3.421-58.187,19.094c-8.983,12.829-12.833,27.599-10.562,40.523
		c0.781,4.445,5.02,7.419,9.46,6.633c4.445-0.78,7.415-5.015,6.634-9.46c-1.504-8.563,1.431-19.152,7.854-28.325
		c10.159-14.509,26.385-21.416,35.429-15.082c5.391,3.775,6.191,10.815,6.186,14.676c-0.007,7.641-3.011,16.307-8.241,23.775
		C368.848,235.216,359.902,241.598,351.34,243.114z"/>
	<path style="fill:#1D2328;" d="M304.224,170.999c-3.906,2.259-5.241,7.257-2.982,11.163c1.514,2.618,4.258,4.082,7.08,4.082
		c1.388-0.001,2.794-0.354,4.083-1.099c11.36-6.57,20.199-19.014,24.252-34.141c7.114-26.549-2.89-51.519-22.774-56.847
		c-9.873-2.643-20.793,0.26-29.963,7.971c-8.473,7.124-14.932,17.734-18.184,29.874c-4.055,15.127-2.62,30.322,3.933,41.692
		c2.254,3.909,7.249,5.251,11.158,2.999c3.91-2.254,5.252-7.25,2.999-11.158c-4.342-7.535-5.205-18.489-2.307-29.304
		c2.36-8.806,7.068-16.678,12.917-21.595c2.957-2.484,8.863-6.399,15.218-4.694c10.667,2.857,15.806,19.726,11.221,36.835
		C317.975,157.589,311.751,166.645,304.224,170.999z"/>
</g>
<g>
</g>
<g>
</g>
<g>
</g>
<g>
</g>
<g>
</g>
<g>
</g>
<g>
</g>
<g>
</g>
<g>
</g>
<g>
</g>
<g>
</g>
<g>
</g>
<g>
</g>
<g>
</g>
<g>
</g>
</svg>
