<?xml version="1.0" encoding="iso-8859-1"?>
<!-- Generator: Adobe Illustrator 19.0.0, SVG Export Plug-In . SVG Version: 6.00 Build 0)  -->
<svg version="1.1" id="Layer_1" xmlns="http://www.w3.org/2000/svg" xmlns:xlink="http://www.w3.org/1999/xlink" x="0px" y="0px"
	 viewBox="0 0 512 512" style="enable-background:new 0 0 512 512;" xml:space="preserve">
<path style="fill:#B3B3B3;" d="M227.156,273.921l-10.211,111.424H67.376c-25.356,0-47.023-15.834-55.623-38.167
	c-2.567-6.645-3.978-13.878-3.978-21.434v-11.8c0-12.111,9.822-21.923,21.934-21.923h58.067l5.3-22.089
	c2.967-12.389,11.378-22.767,22.878-28.234c5.733-2.722,11.933-4.1,18.145-4.1c5.4,0,10.811,1.044,15.922,3.122L227.156,273.921z"/>
<path style="fill:#4D4D4D;" d="M44.443,292.022v10.756c0,12.689-10.278,22.967-22.956,22.967H7.776v-11.8
	c0-12.111,9.822-21.923,21.934-21.923H44.443z"/>
<path style="fill:#E6E6E6;" d="M145.022,372.111v13.234H67.376c-25.356,0-47.023-15.834-55.623-38.167h108.324
	C133.855,347.178,145.022,358.345,145.022,372.111z"/>
<path style="fill:#F2F2F2;" d="M348.118,322.411H243.329c-37.952,0-68.719,30.766-68.719,68.719v100.869h242.225V391.129
	C416.835,353.177,386.069,322.411,348.118,322.411z"/>
<path style="fill:#CCCCCC;" d="M285.669,322.411h-42.341c-37.952,0-68.719,30.766-68.719,68.719v100.869h42.341V391.129
	C216.951,353.177,247.717,322.411,285.669,322.411z"/>
<g>
	<path style="fill:#E0B394;" d="M178.582,228.495c-13.778-0.611-24.745-11.978-24.745-25.9c0-14.311,11.6-25.923,25.923-25.923
		c1.289,0,2.556,0.089,3.8,0.278"/>
	<path style="fill:#E0B394;" d="M412.83,228.495c13.778-0.611,24.756-11.978,24.756-25.9c0-14.311-11.611-25.923-25.934-25.923
		c-1.289,0-2.567,0.1-3.8,0.278"/>
</g>
<path style="fill:#F7CBA4;" d="M258.217,340.534l-45.611-33.138c-24.103-17.511-37.142-46.469-34.276-76.124l7.911-81.866
	c5.449-56.384,52.831-99.408,109.477-99.408l0,0c56.646,0,104.028,43.024,109.477,99.408l7.911,81.866
	c2.866,29.655-10.172,58.612-34.276,76.124l-45.611,33.138C310.857,356.781,280.578,356.781,258.217,340.534z"/>
<path style="fill:#E0B394;" d="M206.714,247.405c-0.767,12.967,3.456,25.723,11.811,35.667l47.671,58.579
	c2.489,2.967,5.311,5.456,8.367,7.445c-5.733-2-11.245-4.867-16.345-8.567l-45.612-33.134c-24.1-17.511-37.134-46.467-34.267-76.123
	l7.9-81.868c5.4-55.834,51.912-98.568,107.835-99.379c-34.445,0.833-73.449,33.3-75.482,67.879L206.714,247.405z"/>
<polyline style="fill:#F2F2F2;" points="278.71,106.696 391.81,106.696 391.81,18.891 199.63,18.891 199.63,106.696 "/>
<path style="fill:#C0E7F9;" d="M256.217,101.697c0,26.689-21.634,48.334-48.323,48.334c-11.111,0-21.345-3.744-29.512-10.056
	c-11.445-8.833-18.822-22.7-18.822-38.278c0-26.689,21.634-48.334,48.334-48.334c9.889,0,19.078,2.967,26.734,8.067
	C247.639,70.096,256.217,84.897,256.217,101.697z"/>
<path style="fill:#E6F6FC;" d="M256.217,101.697c0,26.689-21.634,48.334-48.323,48.334c-11.111,0-21.345-3.744-29.512-10.056
	l56.245-78.545C247.639,70.096,256.217,84.897,256.217,101.697z"/>
<path style="fill:#F9C573;" d="M503.111,364.749l-34.85,11.319c-6.618-3.232-14.052-5.052-21.914-5.052
	c-7.861,0-15.296,1.819-21.914,5.052l-34.85-11.319l5.977,17.371c3.12,9.069,3.979,18.841,1.936,28.211
	c-0.894,4.101-1.284,8.39-1.102,12.8c1.071,25.868,22.193,46.892,48.065,47.844c28.474,1.049,51.887-21.723,51.887-49.963
	c0-3.352-0.331-6.627-0.961-9.795c-1.932-9.708-1.47-19.738,1.75-29.097L503.111,364.749z"/>
<path d="M263.059,276.389c-3.254,3.254-3.254,8.531,0,11.785c9.158,9.158,21.187,13.737,33.217,13.737s24.058-4.579,33.217-13.737
	c3.254-3.254,3.254-8.53,0-11.785c-3.253-3.254-8.53-3.254-11.785,0c-11.818,11.817-31.045,11.817-42.863,0
	C271.59,273.133,266.313,273.135,263.059,276.389z"/>
<path d="M238.478,210.56v13.329c0,4.602,3.731,8.333,8.333,8.333s8.333-3.731,8.333-8.333V210.56c0-4.602-3.731-8.333-8.333-8.333
	S238.478,205.958,238.478,210.56z"/>
<path d="M364.793,186.671c2.132,0,4.266-0.813,5.892-2.441c3.254-3.254,3.254-8.531,0-11.785c-13.753-13.755-36.135-13.756-49.891,0
	c-3.254,3.255-3.254,8.531,0,11.785c3.254,3.254,8.531,3.254,11.785,0c3.516-3.516,8.189-5.451,13.16-5.451
	c4.971,0,9.645,1.936,13.16,5.451C360.527,185.858,362.659,186.671,364.793,186.671z"/>
<path d="M221.866,172.446c-3.254,3.254-3.254,8.531,0,11.785c3.254,3.254,8.531,3.254,11.785,0c3.516-3.516,8.189-5.451,13.16-5.451
	s9.646,1.936,13.16,5.451c1.627,1.627,3.76,2.441,5.892,2.441c2.132,0,4.266-0.813,5.892-2.441c3.254-3.254,3.254-8.531,0-11.785
	C258.002,158.69,235.621,158.69,221.866,172.446z"/>
<path d="M337.407,210.56v13.329c0,4.602,3.731,8.333,8.333,8.333c4.602,0,8.333-3.731,8.333-8.333V210.56
	c0-4.602-3.731-8.333-8.333-8.333C341.138,202.227,337.407,205.958,337.407,210.56z"/>
<path d="M212.265,484.22H183.5v-96.546c0-18.764,9.592-35.789,25.658-45.544c3.935-2.389,5.187-7.515,2.799-11.448
	c-2.389-3.934-7.513-5.187-11.448-2.799c-21.087,12.802-33.676,35.154-33.676,59.791v104.879c0,4.602,3.731,8.333,8.333,8.333
	h37.098c4.602,0,8.333-3.731,8.333-8.333C220.598,487.951,216.867,484.22,212.265,484.22z"/>
<path d="M417.391,484.22H304.612V377.604c0-4.602-3.731-8.333-8.333-8.333c-4.602,0-8.333,3.731-8.333,8.333V484.22h-47.903
	c-4.602,0-8.333,3.731-8.333,8.333c0,4.602,3.731,8.333,8.333,8.333h177.349c4.602,0,8.333-3.731,8.333-8.333
	C425.724,487.951,421.994,484.22,417.391,484.22z"/>
<path d="M380.591,330.681c-2.389,3.934-1.136,9.06,2.798,11.448c3.832,2.327,7.368,5.136,10.508,8.348
	c1.633,1.67,3.796,2.509,5.96,2.509c2.101,0,4.203-0.789,5.825-2.374c3.291-3.217,3.352-8.493,0.134-11.784
	c-4.116-4.211-8.75-7.893-13.776-10.945C388.105,325.494,382.978,326.747,380.591,330.681z"/>
<path d="M283.498,190.005c-4.602,0-8.333,3.731-8.333,8.333v39.445c0,11.641,9.47,21.111,21.111,21.111
	c11.641,0,21.111-9.47,21.111-21.111v-39.445c0-4.602-3.731-8.333-8.333-8.333c-4.602,0-8.333,3.731-8.333,8.333v39.445
	c0,2.451-1.993,4.445-4.445,4.445c-2.451,0-4.444-1.993-4.444-4.445v-39.445C291.832,193.736,288.1,190.005,283.498,190.005z"/>
<path d="M228.34,403.341c7.965,0,14.445,6.48,14.445,14.445v30.019c-4.343,0.286-7.778,3.899-7.778,8.315
	c0,4.602,3.731,8.333,8.333,8.333h7.778c4.602,0,8.333-3.731,8.333-8.333v-38.334c0-14.269-9.658-26.316-22.778-29.969v-40.032
	c0-4.602-3.731-8.333-8.333-8.333s-8.333,3.731-8.333,8.333v40.032c-13.12,3.653-22.778,15.7-22.778,29.969v38.334
	c0,4.602,3.731,8.333,8.333,8.333h9.445c4.602,0,8.333-3.731,8.333-8.333c0-4.602-3.731-8.333-8.333-8.333h-1.111v-30
	C213.895,409.821,220.374,403.341,228.34,403.341z"/>
<path style="fill:#F95428;" d="M296.276,37.978c-4.602,0-8.333,3.731-8.333,8.333v8.703h-8.703c-4.602,0-8.333,3.731-8.333,8.333
	s3.731,8.333,8.333,8.333h8.703v8.703c0,4.602,3.731,8.333,8.333,8.333c4.602,0,8.333-3.731,8.333-8.333v-8.703h8.703
	c4.602,0,8.333-3.731,8.333-8.333s-3.731-8.333-8.333-8.333h-8.703v-8.703C304.609,41.709,300.878,37.978,296.276,37.978z"/>
<path d="M170.262,235.912c-1.306,30.753,12.961,60.586,38.001,78.78l45.614,33.146c12.683,9.211,27.543,13.817,42.402,13.817
	c14.859,0,29.718-4.607,42.395-13.818l45.612-33.145c25.048-18.2,39.316-48.033,38.003-78.78
	c14.087-4.292,24.199-17.349,24.199-32.764c0-17.62-13.378-32.17-30.513-34.046l-1.927-19.932
	c-1.509-15.64-6.003-30.519-13.349-44.265V19.447c0-4.602-3.731-8.333-8.333-8.333H200.186c-4.602,0-8.333,3.731-8.333,8.333v12.592
	c0,4.602,3.731,8.333,8.333,8.333s8.333-3.731,8.333-8.333V27.78h175.512v71.138H279.266c-4.602,0-8.333,3.731-8.333,8.333
	s3.731,8.333,8.333,8.333h108.191c5.446,11.003,8.807,22.817,10,35.188l7.911,81.857c2.57,26.594-9.262,52.871-30.882,68.58
	l-45.612,33.145c-19.496,14.166-45.698,14.166-65.204,0l-45.612-33.145c-21.61-15.701-33.444-41.981-30.882-68.58l6.138-63.506
	c0.442-4.581-2.912-8.655-7.493-9.097c-4.587-0.434-8.653,2.912-9.097,7.493l-0.153,1.583
	c-17.128,1.877-30.502,16.426-30.502,34.046C146.072,218.564,156.181,231.62,170.262,235.912z M429.82,203.149
	c0,6.626-3.643,12.394-9.068,15.394l-3.104-32.116C424.703,188.719,429.82,195.345,429.82,203.149z M174.899,186.428l-3.103,32.113
	c-5.418-3.001-9.057-8.767-9.057-15.39C162.739,195.346,167.851,188.722,174.899,186.428z"/>
<path d="M208.444,158.916c31.246,0,56.665-25.419,56.665-56.665s-25.419-56.665-56.665-56.665c-31.245,0-56.665,25.42-56.665,56.665
	S177.199,158.916,208.444,158.916z M208.444,62.253c22.056,0,39.998,17.944,39.998,39.998S230.5,142.25,208.444,142.25
	c-22.055,0-39.998-17.942-39.998-39.998S186.389,62.253,208.444,62.253z"/>
<path d="M153.728,233.566c-13.129-5.359-27.999-4.935-40.802,1.161c-13.836,6.588-23.821,18.912-27.398,33.814l-3.768,15.698H30.263
	C13.576,284.239,0,297.815,0,314.502v11.797c0,37.46,30.477,67.938,67.938,67.938h75.973c4.602,0,8.333-3.731,8.333-8.333
	s-3.731-8.333-8.333-8.333H67.938c-25.433,0-46.589-18.617-50.583-42.937h4.681c17.257,0,31.297-14.039,31.297-31.297v-2.43h34.998
	c3.853,0,7.203-2.641,8.103-6.389l5.301-22.087c2.396-9.983,9.087-18.241,18.357-22.656c8.578-4.085,18.542-4.368,27.337-0.778
	c4.26,1.738,9.125-0.304,10.865-4.566C160.032,240.171,157.989,235.306,153.728,233.566z M36.666,303.336
	c0,8.067-6.562,14.63-14.63,14.63h-5.369v-3.463c0-7.497,6.099-13.596,13.596-13.596h6.402v2.429H36.666z"/>
<path d="M114.996,275.907v18.332c0,4.602,3.731,8.333,8.333,8.333c4.602,0,8.333-3.731,8.333-8.333v-18.332
	c0-4.602-3.731-8.333-8.333-8.333C118.727,267.573,114.996,271.305,114.996,275.907z"/>
<path d="M509.61,359.462c-2.216-2.253-5.513-3.059-8.518-2.084l-31.785,10.323c-7.097-2.963-14.618-4.465-22.405-4.465
	s-15.307,1.5-22.405,4.465l-31.785-10.323c-3.006-0.976-6.303-0.168-8.518,2.084c-2.214,2.253-2.964,5.566-1.937,8.552l5.976,17.37
	c2.741,7.97,3.32,16.175,1.673,23.727c-1.062,4.87-1.494,9.89-1.287,14.92c1.25,30.193,25.886,54.715,56.085,55.827
	c0.743,0.027,1.483,0.041,2.223,0.041c15.184,0,29.473-5.751,40.448-16.329c11.513-11.098,17.855-26.015,17.855-42.003
	c0-3.84-0.378-7.682-1.121-11.42c-1.692-8.508-1.189-17.069,1.458-24.76l5.977-17.374
	C512.574,365.028,511.824,361.716,509.61,359.462z M489.81,379.966c-3.604,10.477-4.311,22.037-2.043,33.435
	c0.531,2.67,0.801,5.418,0.801,8.168c0,11.42-4.53,22.075-12.755,30.003c-8.22,7.922-19.056,12.05-30.491,11.632
	c-21.563-0.794-39.153-18.304-40.046-39.862c-0.15-3.608,0.159-7.2,0.918-10.68c2.297-10.535,1.538-21.841-2.198-32.698
	l-0.541-1.574l18.961,6.158c2.057,0.668,4.29,0.51,6.231-0.438c5.716-2.791,11.857-4.207,18.256-4.207s12.541,1.416,18.257,4.207
	c1.942,0.948,4.177,1.106,6.231,0.438l18.961-6.158L489.81,379.966z"/>
<path d="M428.933,399.82c-4.602,0-8.333,3.731-8.333,8.333v11.852c0,4.602,3.731,8.333,8.333,8.333c4.602,0,8.333-3.731,8.333-8.333
	v-11.852C437.267,403.551,433.536,399.82,428.933,399.82z"/>
<path d="M458.378,408.153v11.852c0,4.602,3.731,8.333,8.333,8.333c4.602,0,8.333-3.731,8.333-8.333v-11.852
	c0-4.602-3.731-8.333-8.333-8.333C462.109,399.82,458.378,403.551,458.378,408.153z"/>
<path d="M461.527,357.967c4.602,0,8.333-3.731,8.333-8.333v-14.445c0-3.982,3.24-7.222,7.222-7.222
	c13.172,0,23.889-10.717,23.889-23.889c0-4.602-3.731-8.333-8.333-8.333c-4.602,0-8.333,3.731-8.333,8.333
	c0,3.982-3.24,7.222-7.222,7.222c-13.172,0-23.889,10.717-23.889,23.889v14.445C453.194,354.236,456.925,357.967,461.527,357.967z"
	/>
<circle cx="322.638" cy="388.527" r="8.333"/>
<circle cx="322.638" cy="426.305" r="8.333"/>
<circle cx="322.638" cy="464.095" r="8.333"/>
<circle cx="208.447" cy="102.257" r="8.333"/>
<circle cx="446.906" cy="435.561" r="8.333"/>
<g>
</g>
<g>
</g>
<g>
</g>
<g>
</g>
<g>
</g>
<g>
</g>
<g>
</g>
<g>
</g>
<g>
</g>
<g>
</g>
<g>
</g>
<g>
</g>
<g>
</g>
<g>
</g>
<g>
</g>
</svg>
